<svg class="border shadow-md" viewBox="0 0 743.6 743.6" xmlns="http://www.w3.org/2000/svg" preserveAspectRatio="none" style="width: 743.6px; height: 743.6px;"><rect class="bg" id="bg" x="0" y="0" width="743.6" height="743.6" fill="#818898"></rect><g transform="translate(149.85333333333335 34.85333333333334)" opacity="0.16"><path d="M241,193.5Q200,238,137.5,257Q75,276,63.5,212.5Q52,149,69.5,95.5Q87,42,152,36Q217,30,249.5,89.5Q282,149,241,193.5Z" fill="#F0F3F3" stroke="none" stroke-width="10" opacity="0.16"></path></g><g transform="translate(502.85333333333335 485.85333333333335)" opacity="0.16"><path d="M226,194Q201,239,149,239Q97,239,49,194Q1,149,38,85Q75,21,138.5,39Q202,57,226.5,103Q251,149,226,194Z" fill="#D7D7D7" stroke="none" stroke-width="10" opacity="0.16"></path></g><g transform="translate(383.85333333333335 82.85333333333334)" opacity="0.16"><path d="M248.5,200.5Q209,252,149.5,251.5Q90,251,70.5,200Q51,149,65,88Q79,27,141.5,39.5Q204,52,246,100.5Q288,149,248.5,200.5Z" fill="#F0F3F3" stroke="none" stroke-width="10" opacity="0.16"></path></g><g transform="translate(532.8533333333334 433.85333333333335)" opacity="0.16"><path d="M244.5,193Q200,237,151.5,232.5Q103,228,75.5,188.5Q48,149,75,108.5Q102,68,161,46.5Q220,25,254.5,87Q289,149,244.5,193Z" fill="#FFFFFF" stroke="none" stroke-width="10" opacity="0.16"></path></g><g transform="translate(19.85333333333334 570.8533333333334)" opacity="0.16"><path d="M245.5,211Q221,273,150.5,270.5Q80,268,59,208.5Q38,149,68,105Q98,61,150,59Q202,57,236,103Q270,149,245.5,211Z" fill="#F0F3F3" stroke="none" stroke-width="10" opacity="0.16"></path></g><g transform="translate(366.85333333333335 -48.14666666666666)" opacity="0.16"><path d="M226.5,204.5Q213,260,147.5,262.5Q82,265,65.5,207Q49,149,76,109.5Q103,70,149.5,68Q196,66,218,107.5Q240,149,226.5,204.5Z" fill="#D7D7D7" stroke="none" stroke-width="10" opacity="0.16"></path></g><g transform="translate(59.85333333333334 41.85333333333334)" opacity="0.16"><path d="M233,206.5Q215,264,149,263.5Q83,263,59.5,206Q36,149,64,99.5Q92,50,146,54.5Q200,59,225.5,104Q251,149,233,206.5Z" fill="#F0F3F3" stroke="none" stroke-width="10" opacity="0.16"></path></g><g transform="translate(15.853333333333339 106.85333333333334)" opacity="0.16"><path d="M223.5,196.5Q204,244,149.5,243Q95,242,57,195.5Q19,149,53,95.5Q87,42,154.5,32Q222,22,232.5,85.5Q243,149,223.5,196.5Z" fill="#FFFFFF" stroke="none" stroke-width="10" opacity="0.16"></path></g><g transform="translate(-93.14666666666666 527.8533333333334)" opacity="0.16"><path d="M253,208Q217,267,151.5,262.5Q86,258,59,203.5Q32,149,57,91Q82,33,138,51.5Q194,70,241.5,109.5Q289,149,253,208Z" fill="#F0F3F3" stroke="none" stroke-width="10" opacity="0.16"></path></g><g transform="translate(-95.14666666666666 632.8533333333334)" opacity="0.16"><path d="M239,188Q194,227,145,233Q96,239,71,194Q46,149,68,98Q90,47,146,51.5Q202,56,243,102.5Q284,149,239,188Z" fill="#D7D7D7" stroke="none" stroke-width="10" opacity="0.16"></path></g><g transform="translate(429.85333333333335 492.85333333333335)" opacity="0.16"><path d="M243.5,200Q208,251,150.5,248Q93,245,47.5,197Q2,149,43.5,93.5Q85,38,153,30.5Q221,23,250,86Q279,149,243.5,200Z" fill="#F0F3F3" stroke="none" stroke-width="10" opacity="0.16"></path></g><g transform="translate(49.85333333333334 359.85333333333335)" opacity="0.16"><path d="M255,212Q222,275,156.5,262Q91,249,66.5,199Q42,149,65.5,97.5Q89,46,144,54Q199,62,243.5,105.5Q288,149,255,212Z" fill="#FFFFFF" stroke="none" stroke-width="10" opacity="0.16"></path></g><g transform="translate(571.8533333333334 383.85333333333335)" opacity="0.16"><path d="M237,189.5Q196,230,143.5,240Q91,250,71.5,199.5Q52,149,69,94.5Q86,40,153,32.5Q220,25,249,87Q278,149,237,189.5Z" fill="#F0F3F3" stroke="none" stroke-width="10" opacity="0.16"></path></g><g transform="translate(259.85333333333335 476.85333333333335)" opacity="0.16"><path d="M236.5,199Q207,249,155,238Q103,227,61,188Q19,149,59,105.5Q99,62,157,47.5Q215,33,240.5,91Q266,149,236.5,199Z" fill="#D7D7D7" stroke="none" stroke-width="10" opacity="0.16"></path></g><g transform="translate(133.85333333333335 207.85333333333335)" opacity="0.16"><path d="M241.5,195.5Q202,242,144.5,249Q87,256,65.5,202.5Q44,149,72.5,107.5Q101,66,156,54Q211,42,246,95.5Q281,149,241.5,195.5Z" fill="#F0F3F3" stroke="none" stroke-width="10" opacity="0.16"></path></g><g transform="translate(320.85333333333335 39.85333333333334)" opacity="0.16"><path d="M256.5,211Q221,273,162,251Q103,229,52,189Q1,149,50,105.5Q99,62,158.5,45.5Q218,29,255,89Q292,149,256.5,211Z" fill="#FFFFFF" stroke="none" stroke-width="10" opacity="0.16"></path></g><g transform="translate(121.85333333333334 526.8533333333334)" opacity="0.16"><path d="M239,207.5Q216,266,155.5,254Q95,242,63.5,195.5Q32,149,67,108Q102,67,158,51.5Q214,36,238,92.5Q262,149,239,207.5Z" fill="#F0F3F3" stroke="none" stroke-width="10" opacity="0.16"></path></g><g transform="translate(-80.14666666666666 -92.14666666666666)" opacity="0.16"><path d="M249.5,213Q223,277,157,263Q91,249,66.5,199Q42,149,59.5,87Q77,25,136,46.5Q195,68,235.5,108.5Q276,149,249.5,213Z" fill="#D7D7D7" stroke="none" stroke-width="10" opacity="0.16"></path></g><g transform="translate(33.85333333333334 174.85333333333335)" opacity="0.16"><path d="M249,199.5Q207,250,146,254.5Q85,259,69.5,204Q54,149,69.5,93.5Q85,38,148.5,38.5Q212,39,251.5,94Q291,149,249,199.5Z" fill="#F0F3F3" stroke="none" stroke-width="10" opacity="0.16"></path></g><g transform="translate(401 -11)" opacity="0.16"><path d="M272.5,230Q239,287,174,284.5Q109,282,81,227.5Q53,173,79,114Q105,55,181.5,39.5Q258,24,282,98.5Q306,173,272.5,230Z" fill="#FFFFFF" stroke="none" stroke-width="10" opacity="0.16"></path></g><g transform="translate(-64.66666666666667 227.33333333333331)" opacity="0.16"><path d="M293,250.5Q262,323,181.5,317Q101,311,66,244.5Q31,178,64.5,109Q98,40,174.5,45.5Q251,51,287.5,114.5Q324,178,293,250.5Z" fill="#F0F3F3" stroke="none" stroke-width="10" opacity="0.16"></path></g><g transform="translate(83.85333333333334 22.85333333333334)" opacity="0.16"><path d="M232.5,196Q203,243,150.5,239.5Q98,236,56.5,192.5Q15,149,59.5,110Q104,71,149,71Q194,71,228,110Q262,149,232.5,196Z" fill="#D7D7D7" stroke="none" stroke-width="10" opacity="0.16"></path></g><g transform="translate(91.85333333333334 309.85333333333335)" opacity="0.16"><path d="M244.5,211.5Q221,274,153,266.5Q85,259,59.5,204Q34,149,62,98Q90,47,148,48Q206,49,237,99Q268,149,244.5,211.5Z" fill="#F0F3F3" stroke="none" stroke-width="10" opacity="0.16"></path></g><g transform="translate(560.8533333333334 502.85333333333335)" opacity="0.16"><path d="M236,212Q222,275,160,256Q98,237,65,193Q32,149,63.5,102.5Q95,56,150,54Q205,52,227.5,100.5Q250,149,236,212Z" fill="#FFFFFF" stroke="none" stroke-width="10" opacity="0.16"></path></g><g transform="translate(15.853333333333339 364.85333333333335)" opacity="0.16"><path d="M228.5,205.5Q214,262,159,244Q104,226,76.5,187.5Q49,149,72.5,103Q96,57,153.5,49Q211,41,227,95Q243,149,228.5,205.5Z" fill="#F0F3F3" stroke="none" stroke-width="10" opacity="0.16"></path></g><g transform="translate(11.853333333333339 611.8533333333334)" opacity="0.16"><path d="M235.5,197.5Q205,246,151.5,241.5Q98,237,72.5,193Q47,149,68.5,98Q90,47,149,46.5Q208,46,237,97.5Q266,149,235.5,197.5Z" fill="#D7D7D7" stroke="none" stroke-width="10" opacity="0.16"></path></g><g transform="translate(222.85333333333335 -94.14666666666666)" opacity="0.16"><path d="M251.5,207.5Q216,266,155.5,254Q95,242,70,195.5Q45,149,67.5,98Q90,47,149,46.5Q208,46,247.5,97.5Q287,149,251.5,207.5Z" fill="#F0F3F3" stroke="none" stroke-width="10" opacity="0.16"></path></g><g transform="translate(-6.146666666666661 -21.14666666666666)" opacity="0.16"><path d="M239,187.5Q193,226,146.5,229.5Q100,233,58.5,191Q17,149,52.5,96Q88,43,151,39Q214,35,249.5,92Q285,149,239,187.5Z" fill="#FFFFFF" stroke="none" stroke-width="10" opacity="0.16"></path></g><g transform="translate(331.85333333333335 67.85333333333334)" opacity="0.16"><path d="M227.5,199Q207,249,143.5,258Q80,267,43.5,208Q7,149,41,84.5Q75,20,145.5,26.5Q216,33,232,91Q248,149,227.5,199Z" fill="#F0F3F3" stroke="none" stroke-width="10" opacity="0.16"></path></g><g transform="translate(243.85333333333335 -96.14666666666666)" opacity="0.16"><path d="M245.5,212Q222,275,160,256Q98,237,64.5,193Q31,149,63,102Q95,55,147,58.5Q199,62,234,105.5Q269,149,245.5,212Z" fill="#D7D7D7" stroke="none" stroke-width="10" opacity="0.16"></path></g><g transform="translate(163.85333333333335 640.8533333333334)" opacity="0.16"><path d="M236,188.5Q195,228,140,243Q85,258,68,203.5Q51,149,65,88.5Q79,28,150.5,24.5Q222,21,249.5,85Q277,149,236,188.5Z" fill="#F0F3F3" stroke="none" stroke-width="10" opacity="0.16"></path></g><g transform="translate(117.85333333333334 -19.14666666666666)" opacity="0.16"><path d="M233,212Q221,275,153.5,266Q86,257,70.5,203Q55,149,67,88.5Q79,28,140.5,42Q202,56,223.5,102.5Q245,149,233,212Z" fill="#FFFFFF" stroke="none" stroke-width="10" opacity="0.16"></path></g><g transform="translate(358.85333333333335 33.85333333333334)" opacity="0.16"><path d="M249,204Q212,259,157.5,243.5Q103,228,53.5,188.5Q4,149,50.5,104.5Q97,60,148.5,60.5Q200,61,243,105Q286,149,249,204Z" fill="#F0F3F3" stroke="none" stroke-width="10" opacity="0.16"></path></g></svg>